<svg width="33" height="33" viewBox="0 0 33 33" fill="none" xmlns="http://www.w3.org/2000/svg">
<path d="M9.3355 26.895C10.4425 25.707 12.13 25.8015 13.102 27.0975L14.4655 28.92C15.559 30.3645 17.3275 30.3645 18.421 28.92L19.7845 27.0975C20.7565 25.8015 22.444 25.707 23.551 26.895C25.954 29.46 27.9115 28.6095 27.9115 25.0185V9.804C27.925 4.3635 26.656 3 21.553 3H11.347C6.244 3 4.975 4.3635 4.975 9.804V25.005C4.975 28.6095 6.946 29.4465 9.3355 26.895Z" stroke="white" stroke-width="2.025" stroke-linecap="round" stroke-linejoin="round"/>
<path d="M12.4 17.85L20.5 9.75" stroke="white" stroke-width="2.025" stroke-linecap="round" stroke-linejoin="round"/>
<path d="M20.4926 17.85H20.5047" stroke="white" stroke-width="2.7" stroke-linecap="round" stroke-linejoin="round"/>
<path d="M12.3926 10.425H12.4047" stroke="white" stroke-width="2.7" stroke-linecap="round" stroke-linejoin="round"/>
</svg>
