<svg width="33" height="34" viewBox="0 0 33 34" fill="none" xmlns="http://www.w3.org/2000/svg">
<path d="M16.45 21.9625C13.6555 21.9625 11.3875 19.6945 11.3875 16.9C11.3875 14.1055 13.6555 11.8375 16.45 11.8375C19.2445 11.8375 21.5125 14.1055 21.5125 16.9C21.5125 19.6945 19.2445 21.9625 16.45 21.9625ZM16.45 13.8625C14.776 13.8625 13.4125 15.226 13.4125 16.9C13.4125 18.574 14.776 19.9375 16.45 19.9375C18.124 19.9375 19.4875 18.574 19.4875 16.9C19.4875 15.226 18.124 13.8625 16.45 13.8625Z" fill="white"/>
<path d="M20.7835 30.6566C20.5 30.6566 20.2165 30.6161 19.933 30.5486C19.096 30.3191 18.394 29.7926 17.9485 29.0501L17.7865 28.7801C16.99 27.4031 15.8965 27.4031 15.1 28.7801L14.9515 29.0366C14.506 29.7926 13.804 30.3326 12.967 30.5486C12.1165 30.7781 11.239 30.6566 10.4965 30.2111L8.1745 28.8746C7.351 28.4021 6.757 27.6326 6.5005 26.7011C6.2575 25.7696 6.379 24.8111 6.8515 23.9876C7.243 23.2991 7.351 22.6781 7.1215 22.2866C6.892 21.8951 6.3115 21.6656 5.515 21.6656C3.544 21.6656 1.9375 20.0591 1.9375 18.0881V15.7121C1.9375 13.7411 3.544 12.1346 5.515 12.1346C6.3115 12.1346 6.892 11.9051 7.1215 11.5136C7.351 11.1221 7.2565 10.5011 6.8515 9.81262C6.379 8.98912 6.2575 8.01712 6.5005 7.09912C6.7435 6.16762 7.3375 5.39812 8.1745 4.92562L10.51 3.58912C12.0355 2.68462 14.047 3.21112 14.965 4.76362L15.127 5.03362C15.9235 6.41062 17.017 6.41062 17.8135 5.03362L17.962 4.77712C18.88 3.21112 20.8915 2.68462 22.4305 3.60262L24.7525 4.93912C25.576 5.41162 26.17 6.18112 26.4265 7.11262C26.6695 8.04412 26.548 9.00262 26.0755 9.82612C25.684 10.5146 25.576 11.1356 25.8055 11.5271C26.035 11.9186 26.6155 12.1481 27.412 12.1481C29.383 12.1481 30.9895 13.7546 30.9895 15.7256V18.1016C30.9895 20.0726 29.383 21.6791 27.412 21.6791C26.6155 21.6791 26.035 21.9086 25.8055 22.3001C25.576 22.6916 25.6705 23.3126 26.0755 24.0011C26.548 24.8246 26.683 25.7966 26.4265 26.7146C26.1835 27.6461 25.5895 28.4156 24.7525 28.8881L22.417 30.2246C21.904 30.5081 21.3505 30.6566 20.7835 30.6566ZM16.45 25.6616C17.6515 25.6616 18.772 26.4176 19.5415 27.7541L19.69 28.0106C19.852 28.2941 20.122 28.4966 20.446 28.5776C20.77 28.6586 21.094 28.6181 21.364 28.4561L23.6995 27.1061C24.0505 26.9036 24.3205 26.5661 24.4285 26.1611C24.5365 25.7561 24.4825 25.3376 24.28 24.9866C23.5105 23.6636 23.416 22.3001 24.01 21.2606C24.604 20.2211 25.8325 19.6271 27.3715 19.6271C28.2355 19.6271 28.924 18.9386 28.924 18.0746V15.6986C28.924 14.8481 28.2355 14.1461 27.3715 14.1461C25.8325 14.1461 24.604 13.5521 24.01 12.5126C23.416 11.4731 23.5105 10.1096 24.28 8.78662C24.4825 8.43562 24.5365 8.01712 24.4285 7.61212C24.3205 7.20712 24.064 6.88312 23.713 6.66712L21.3775 5.33062C20.797 4.97962 20.0275 5.18212 19.6765 5.77612L19.528 6.03262C18.7585 7.36912 17.638 8.12512 16.4365 8.12512C15.235 8.12512 14.1145 7.36912 13.345 6.03262L13.1965 5.76262C12.859 5.19562 12.103 4.99312 11.5225 5.33062L9.187 6.68062C8.836 6.88312 8.566 7.22062 8.458 7.62562C8.35 8.03062 8.404 8.44912 8.6065 8.80012C9.376 10.1231 9.4705 11.4866 8.8765 12.5261C8.2825 13.5656 7.054 14.1596 5.515 14.1596C4.651 14.1596 3.9625 14.8481 3.9625 15.7121V18.0881C3.9625 18.9386 4.651 19.6406 5.515 19.6406C7.054 19.6406 8.2825 20.2346 8.8765 21.2741C9.4705 22.3136 9.376 23.6771 8.6065 25.0001C8.404 25.3511 8.35 25.7696 8.458 26.1746C8.566 26.5796 8.8225 26.9036 9.1735 27.1196L11.509 28.4561C11.7925 28.6316 12.13 28.6721 12.4405 28.5911C12.7645 28.5101 13.0345 28.2941 13.21 28.0106L13.3585 27.7541C14.128 26.4311 15.2485 25.6616 16.45 25.6616Z" fill="white"/>
</svg>
