<svg width="33" height="33" viewBox="0 0 33 33" fill="none" xmlns="http://www.w3.org/2000/svg">
<path d="M13.156 25.8625C12.6025 25.8625 12.1435 25.4035 12.1435 24.85V18.1C12.1435 17.5465 12.6025 17.0875 13.156 17.0875C13.7095 17.0875 14.1685 17.5465 14.1685 18.1V24.85C14.1685 25.4035 13.7095 25.8625 13.156 25.8625Z" fill="white"/>
<path d="M16.45 22.4875H9.7C9.1465 22.4875 8.6875 22.0285 8.6875 21.475C8.6875 20.9215 9.1465 20.4625 9.7 20.4625H16.45C17.0035 20.4625 17.4625 20.9215 17.4625 21.475C17.4625 22.0285 17.0035 22.4875 16.45 22.4875Z" fill="white"/>
<path d="M11.05 8.31255C10.4965 8.31255 10.0375 7.85355 10.0375 7.30005V3.25005C10.0375 2.69655 10.4965 2.23755 11.05 2.23755C11.6035 2.23755 12.0625 2.69655 12.0625 3.25005V7.30005C12.0625 7.85355 11.6035 8.31255 11.05 8.31255Z" fill="white"/>
<path d="M21.85 8.31255C21.2965 8.31255 20.8375 7.85355 20.8375 7.30005V3.25005C20.8375 2.69655 21.2965 2.23755 21.85 2.23755C22.4035 2.23755 22.8625 2.69655 22.8625 3.25005V7.30005C22.8625 7.85355 22.4035 8.31255 21.85 8.31255Z" fill="white"/>
<path d="M12.1975 31.3436C8.863 31.3436 6.6625 30.6146 5.2855 29.0486C3.6925 27.2531 3.436 24.5666 3.382 22.1771L3.2065 13.8476C3.0715 7.46209 5.191 4.80259 10.726 4.38409L21.58 4.16809C21.607 4.16809 21.6205 4.16809 21.634 4.16809C27.1825 4.35709 29.3965 6.92209 29.5315 13.3211L29.6935 21.6506C29.7475 24.0401 29.5855 26.7401 28.0735 28.5896C26.6965 30.2771 24.3745 31.1006 20.77 31.1816L12.67 31.3436C12.508 31.3436 12.346 31.3436 12.1975 31.3436ZM21.58 6.17959L10.8205 6.39559C7.0405 6.69259 5.11 7.90759 5.2315 13.8071L5.407 22.1366C5.461 24.9986 5.8795 26.6726 6.7975 27.7121C7.8235 28.8731 9.673 29.3861 12.643 29.3186L20.743 29.1566C23.6995 29.1026 25.5355 28.5086 26.521 27.3071C27.3985 26.2406 27.7495 24.5531 27.682 21.6911L27.52 13.3616C27.385 7.47559 25.414 6.31459 21.58 6.17959Z" fill="white"/>
</svg>
