<svg width="33" height="33" viewBox="0 0 33 33" fill="none" xmlns="http://www.w3.org/2000/svg">
<path d="M27.25 26.251H15.0055C14.398 26.251 13.8985 25.7515 13.8985 25.144C13.8985 24.5365 14.398 24.037 15.0055 24.037H27.25C27.8575 24.037 28.357 24.5365 28.357 25.144C28.357 25.765 27.8575 26.251 27.25 26.251Z" fill="white"/>
<path d="M27.25 17.7594H15.0055C14.398 17.7594 13.8985 17.2599 13.8985 16.6524C13.8985 16.0449 14.398 15.5454 15.0055 15.5454H27.25C27.8575 15.5454 28.357 16.0449 28.357 16.6524C28.357 17.2599 27.8575 17.7594 27.25 17.7594Z" fill="white"/>
<path d="M27.25 9.25453H15.0055C14.398 9.25453 13.8985 8.75503 13.8985 8.14753C13.8985 7.54003 14.398 7.04053 15.0055 7.04053H27.25C27.8575 7.04053 28.357 7.54003 28.357 8.14753C28.357 8.75503 27.8575 9.25453 27.25 9.25453Z" fill="white"/>
<path opacity="0.4" d="M6.8785 11.0906C6.5815 11.0906 6.298 10.9691 6.0955 10.7666L4.867 9.53809C4.435 9.10609 4.435 8.40409 4.867 7.97209C5.299 7.54009 6.001 7.54009 6.433 7.97209L6.8785 8.41759L9.7675 5.52859C10.1995 5.09659 10.9015 5.09659 11.3335 5.52859C11.7655 5.96059 11.7655 6.66259 11.3335 7.09459L7.6615 10.7666C7.4455 10.9691 7.1755 11.0906 6.8785 11.0906Z" fill="white"/>
<path opacity="0.4" d="M6.8785 19.5955C6.595 19.5955 6.3115 19.4875 6.0955 19.2715L4.867 18.043C4.435 17.611 4.435 16.909 4.867 16.477C5.299 16.045 6.001 16.045 6.433 16.477L6.8785 16.9225L9.7675 14.0335C10.1995 13.6015 10.9015 13.6015 11.3335 14.0335C11.7655 14.4655 11.7655 15.1675 11.3335 15.5995L7.6615 19.2715C7.4455 19.4875 7.162 19.5955 6.8785 19.5955Z" fill="white"/>
<path opacity="0.4" d="M6.8785 27.6954C6.595 27.6954 6.3115 27.5874 6.0955 27.3714L4.867 26.1429C4.435 25.7109 4.435 25.009 4.867 24.577C5.299 24.145 6.001 24.145 6.433 24.577L6.8785 25.0225L9.7675 22.1334C10.1995 21.7014 10.9015 21.7014 11.3335 22.1334C11.7655 22.5654 11.7655 23.2675 11.3335 23.6995L7.6615 27.3714C7.4455 27.5874 7.162 27.6954 6.8785 27.6954Z" fill="white"/>
</svg>
